<svg xmlns:xlink="http://www.w3.org/1999/xlink" xmlns="http://www.w3.org/2000/svg" width="24" height="24" viewBox="0 0 24 24" role="img" aria-labelledby="a3ypfoiwojm4ksp02r5tuhvr0h8lo255" class="crayons-icon c-link__icon"><title id="a3ypfoiwojm4ksp02r5tuhvr0h8lo255">Facebook</title>
    <path d="M15.402 21v-6.966h2.333l.349-2.708h-2.682V9.598c0-.784.218-1.319 1.342-1.319h1.434V5.857a19.188 19.188 0 00-2.09-.107c-2.067 0-3.482 1.262-3.482 3.58v1.996h-2.338v2.708h2.338V21H4a1 1 0 01-1-1V4a1 1 0 011-1h16a1 1 0 011 1v16a1 1 0 01-1 1h-4.598z" fill="#404040"></path>
</svg>